 http://www.imdb.com/title/tt1300854/


[b]Marvel's "Iron Man 3" pits brash-but-brilliant industrialist Tony Stark/Iron Man against an enemy whose reach knows no bounds. When Stark finds his personal world destroyed at his enemy's hands, he embarks on a harrowing quest to find those responsible. This journey, at every turn, will test his mettle. With his back against the wall, Stark is left to survive by his own devices, relying on his ingenuity and instincts to protect those closest to him. As he fights his way back, Stark discovers the answer to the question that has secretly haunted him: does the man make the suit or does the suit make the man? 



Director:
 Shane Black 

Writers:
 Drew Pearce (screenplay), Shane Black (screenplay)

Stars:
 Robert Downey Jr., Gwyneth Paltrow, Guy Pearce

Genres:
  Action |  Sci-Fi |  Thriller 

Country:
 USA | China 

Language:
 English 
[/b]




Format                                   : AVI
 Format/Info                              : Audio Video Interleave
 File size                                : 1.43 GiB
 Duration                                 : 2h 6mn
 Overall bit rate                         : 1 618 Kbps
 Writing library                          : VirtualDub build 32842/release

 Video
 ID                                       : 0
 Format                                   : MPEG-4 Visual
 Format profile                           : Advanced Simple@L5
 Format settings, BVOP                    : 2
 Format settings, QPel                    : No
 Format settings, GMC                     : No warppoints
 Format settings, Matrix                  : Default (H.263)
 Muxing mode                              : Packed bitstream
 Codec ID                                 : XVID
 Codec ID/Hint                            : XviD
 Duration                                 : 2h 6mn
 Bit rate                                 : 1 478 Kbps
 Width                                    : 720 pixels
 Height                                   : 288 pixels
 Display aspect ratio                     : 2.500
 Frame rate                               : 30.000 fps
 Color space                              : YUV
 Chroma subsampling                       : 4:2:0
 Bit depth                                : 8 bits
 Scan type                                : Progressive
 Compression mode                         : Lossy
 Bits/(Pixel*Frame)                       : 0.238
 Stream size                              : 1.31 GiB (91%)
 Writing library                          : XviD 64

 Audio
 ID                                       : 1
 Format                                   : MPEG Audio
 Format version                           : Version 1
 Format profile                           : Layer 3
 Mode                                     : Joint stereo
 Mode extension                           : MS Stereo
 Codec ID                                 : 55
 Codec ID/Hint                            : MP3
 Duration                                 : 2h 6mn
 Bit rate mode                            : Constant
 Bit rate                                 : 128 Kbps
 Channel(s)                               : 2 channels
 Sampling rate                            : 48.0 KHz
 Compression mode                         : Lossy
 Delay relative to video                  : 8s 0ms
 Stream size                              : 116 MiB (8%)
 Alignment                                : Split accross interleaves
 Interleave, duration                     : 33 ms (1.00 video frame)
 Interleave, preload duration             : 500 ms
 Writing library                          : LAME3.99r
 Encoding settings                        : -m j -V 4 -q 2 -lowpass 17 -b 128






 Source Used 


 Video / smy/JUSTiCE - thanks

 Audio / GoldenBear - thanks




    	http://addpix.net/viewer.php?file=47915293034238530426.jpg
    	http://addpix.net/viewer.php?file=98754465390698788238.jpg
    	http://addpix.net/viewer.php?file=90357953563957825608.jpg
    	http://addpix.net/viewer.php?file=03528180975949179867.jpg
    	http://addpix.net/viewer.php?file=57229819837676079448.jpg